<svg id="Layer_1" data-name="Layer 1" xmlns="http://www.w3.org/2000/svg" width="78.41" height="16.36" viewBox="0 0 78.41 16.36">
  <defs>
    <style>
      .cls-1 {
        fill: #fff;
        fill-rule: evenodd;
      }
    </style>
  </defs>
  <g>
    <path class="cls-1" d="M74.1,13.85,73,14.59c.86.42,1.45-.44,2.37-.36a4.76,4.76,0,0,1-.55.55,5.45,5.45,0,0,0-1.06.68,1.93,1.93,0,0,1-1.43.57c-.34,0-.72-.31-1.09.2a2.45,2.45,0,0,1-1.34.07,10.1,10.1,0,0,1-7.24-3c-.78.35-1.6.7-2.39,1.09a7.63,7.63,0,0,1-3.25.76c-1,0-1.94.09-2.9.14a8.34,8.34,0,0,1-6.44-2.41c-1.25-1.18-1.24-1.07-2.84-.33a53.82,53.82,0,0,1-5.58,2.26,5.75,5.75,0,0,1-2.3,0,.81.81,0,0,1-.76-.86v0a1.35,1.35,0,0,1,.7-.8,4,4,0,0,1,1.24-.29A17.69,17.69,0,0,0,44,10.92c.33-.19.65-.42,1-.64a2.16,2.16,0,0,1,2.79,0,22.9,22.9,0,0,1,1.85,1.39,5.94,5.94,0,0,0,4.19,1.43c.47,0,.93,0,1.4,0a11.32,11.32,0,0,0,6.21-1.63,6,6,0,0,1,.62-.32,1.61,1.61,0,0,1,2.2.38c1.88,2.06,4.4,2.45,7,2.62A12.84,12.84,0,0,0,74,13.67ZM38,4.88a4.16,4.16,0,0,1,2.07-1A14.74,14.74,0,0,0,45.54,1.8C46.25,1.33,47,.92,47.7.44a2,2,0,0,1,2.67.13A15,15,0,0,1,52,2,4.47,4.47,0,0,0,55.8,3.68a16.49,16.49,0,0,1,1.86,0A7,7,0,0,0,62.39,2C63.71,1,64,1,65.48,1.92c.91.58,1.78,1.23,2.7,1.8a7,7,0,0,0,4.59.89c1-.12,2-.37,3-.45a9.16,9.16,0,0,1,1.8.18l.73-.65.13.14a7.45,7.45,0,0,1-1.25,2A4.5,4.5,0,0,1,75,6.72a11.87,11.87,0,0,1-6.2-.35,23.94,23.94,0,0,1-3-1.57c-.64-.37-1.21-.83-1.86-1.29l-1.34.89A8.2,8.2,0,0,1,58.1,5.82c-1.16,0-2.33,0-3.48-.12a5,5,0,0,1-3.29-1.57c-.72-.75-1.42-1.52-2.24-2.42-.86.47-1.8.91-2.66,1.47a19.72,19.72,0,0,1-7.24,2.4C38.7,5.67,38.46,5.49,38,4.88Z"/>
    <path class="cls-1" d="M19.41,11.68a12,12,0,0,0,2.72.61c2.5,0,5-.17,6.93-2a1.59,1.59,0,0,1,2.16-.21c.2.11.39.22.58.35a11.13,11.13,0,0,0,5.91,2c.45,0,.9,0,1.35.1a5.85,5.85,0,0,0,4.16-1.07,20.66,20.66,0,0,1,1.89-1.19,2.13,2.13,0,0,1,2.7.23c.3.23.58.47.9.67a17.45,17.45,0,0,0,5.52,2.18,4,4,0,0,1,1.18.36,1.34,1.34,0,0,1,.63.81v0a.78.78,0,0,1-.8.76A5.78,5.78,0,0,1,53,15.16a53,53,0,0,1-5.26-2.54c-1.49-.81-1.48-.92-2.77.11a8.14,8.14,0,0,1-6.4,1.85l-2.8-.33a7.52,7.52,0,0,1-3.11-.95c-.74-.42-1.5-.81-2.24-1.2a9.9,9.9,0,0,1-7.22,2.36,2.41,2.41,0,0,1-1.3-.15c-.31-.52-.71-.21-1-.27a1.89,1.89,0,0,1-1.36-.64,4.67,4.67,0,0,0-1-.72,4.37,4.37,0,0,1-.49-.56c.9,0,1.41.85,2.27.51l-1-.78Z"/>
    <path class="cls-1" d="M39.22,5.58A19.78,19.78,0,0,1,32,3.18c-.86-.56-1.8-1-2.65-1.47-.83.9-1.53,1.67-2.24,2.42a5,5,0,0,1-3.3,1.57c-1.15.1-2.32.11-3.48.12A8.15,8.15,0,0,1,15.83,4.4c-.46-.29-.9-.59-1.35-.89-.64.46-1.22.92-1.85,1.29a23.37,23.37,0,0,1-3,1.57,11.87,11.87,0,0,1-6.2.35,4.5,4.5,0,0,1-2.21-.91A7.71,7.71,0,0,1,0,3.83l.14-.14.73.65a9,9,0,0,1,1.8-.18c1,.08,2,.33,3,.45a7,7,0,0,0,4.59-.89c.92-.57,1.79-1.22,2.7-1.8C14.4,1,14.71,1,16,2a7,7,0,0,0,4.73,1.65,16.49,16.49,0,0,1,1.86,0A4.47,4.47,0,0,0,26.4,2,15,15,0,0,1,28,.57,2,2,0,0,1,30.71.44c.7.48,1.45.89,2.16,1.36a14.74,14.74,0,0,0,5.49,2.12,4.12,4.12,0,0,1,2.07,1C40,5.49,39.71,5.67,39.22,5.58Z"/>
  </g>
</svg>
