<svg id="Layer_1" data-name="Layer 1" xmlns="http://www.w3.org/2000/svg" viewBox="0 0 435.85 297.44"><defs><style>.cls-1{fill:#396780;}.cls-2{fill:#5c5d5f;}.cls-3{fill:#5d5e60;}.cls-4{fill:#10475e;}.cls-5{fill:#5e5f61;}.cls-6{fill:#696a6c;}.cls-7{fill:#666668;}.cls-8{fill:#68696a;}.cls-9{fill:#636466;}.cls-10{fill:#6d6e6f;}</style></defs><title>new_mobil_logo</title><path class="cls-1" d="M376.1,375.93a9.2,9.2,0,0,1-4-2.86c-5.42-5.64-10.76-11.35-16.19-17-12.25-12.69-24.67-25.22-36.78-38C304.9,302.93,290.45,288,276.07,273c-4.81-5-9.66-9.93-15.29-15.89V376.65c-4.86.76-9.25.42-13.41.32-1.23-1.64-.9-3.19-.9-4.66q0-62.73,0-125.45c0-7.11,4.44-11.62,10.63-10.81a11.71,11.71,0,0,1,6.9,3.7c6.71,6.94,13.44,13.85,20.12,20.82Q296,273,307.86,285.5c2.86,3,5.65,6.08,8.46,9.14a2.7,2.7,0,0,0,2.58,1.15c2.09,4.26,4.27,8.43,9.12,10.23.29,2,2,3,3.27,4.25,7.28,7.51,14.87,14.74,21.84,22.53,6.31,7.06,13.41,13.34,19.56,20.54.78.92,1.49,2.41,3.21,1.47Q376,365.37,376.1,375.93Z" transform="translate(-104.33 -232.86)"/><path class="cls-2" d="M188.63,412.53v73a50.22,50.22,0,0,1-12.06-.05V437.16c-1.85.37-1.94,1.53-2.37,2.35-7.31,14.21-14.64,28.41-21.84,42.68-1.24,2.46-2.52,3.71-5.58,3.76-3.26.06-4.3-1.6-5.5-4q-11-21.84-22.25-43.6a3.27,3.27,0,0,0-2-1.71v48.85H105.39V412.85c4.23-.74,8.69-.23,13.1-.27,2.37,0,2.67,2.26,3.44,3.81,6.8,13.72,13.5,27.5,20.3,41.22,1.32,2.66,2.37,5.49,4.27,7.81,2-.37,2.1-2.13,2.72-3.37,7.39-14.93,14.84-29.83,22-44.86,1.66-3.49,3.59-5.2,7.58-4.74A88.34,88.34,0,0,0,188.63,412.53Z" transform="translate(-104.33 -232.86)"/><path class="cls-3" d="M305.22,413c2.3-.84,4.32-.45,6.29-.46,6.26-.06,6.21,0,8.24,6.07q6.5,19.42,13.07,38.8c.2.61.26,1.3,1,1.64,1.59-.18,1.34-1.71,1.68-2.65,4.77-13.32,9.45-26.66,14.15-40,1.33-3.77,3.27-4.77,7.15-3.88,1.63.38,1.92,1.57,2.37,2.85q4.9,13.89,9.86,27.75a120.1,120.1,0,0,0,6.63,15.94c1.57-4.38,3.2-8.73,4.71-13.12,3.35-9.76,6.74-19.52,9.9-29.34,1-2.95,2.26-4.59,5.61-4.14,2.61.35,5.31-.31,7.88.35,1,1.41.18,2.61-.25,3.82Q391.89,449.32,380.27,482c-.83,2.33-1.59,4.11-4.74,3.92-2.54-.16-3.73-.87-4.63-3.36-4.79-13.29-9.82-26.51-14.78-39.74-.33-.9-.37-2-1.83-2.73-3.19,8.54-6.37,17-9.53,25.5-2.15,5.77-4.39,11.51-6.38,17.33-.9,2.64-2.66,2.91-5,3s-3.23-.92-3.94-2.92q-12-34.11-24.19-68.2A6.5,6.5,0,0,1,305.22,413Z" transform="translate(-104.33 -232.86)"/><path class="cls-4" d="M328,306c-4.85-1.8-7-6-9.12-10.23,5.49-7.11,11.92-13.38,17.91-20,10-11.1,20.12-22.12,30.22-33.14a95.85,95.85,0,0,1,7-7.1c5.59-4.95,13.23-2.69,15.42,4.45a18.06,18.06,0,0,1,.61,5.43q0,59.92,0,119.84c0,.67,0,1.34,0,2-.5,7.85-6.48,11.57-13.95,8.7q-.11-10.56-.2-21.12c-.07-1.82-.21-3.65-.2-5.47.14-22.27.48-44.55.39-66.82,0-8.29-.46-16.6-.41-24.9,0-.85.72-2-1-2.49l-7.59,8.39c-7.49,8.22-14.95,16.46-22.47,24.65C339.12,294.16,333.55,300.07,328,306Z" transform="translate(-104.33 -232.86)"/><path class="cls-3" d="M533.78,485.8c-4.07,0-7.87-.08-11.67,0-2.07.06-2.88-1.34-3.81-2.72l-24.1-35.52c-3.44-5.06-6.9-10.1-11.06-16.21v53.73c-3.63,1.24-7,.46-10.22.67a1.92,1.92,0,0,1-2.27-2c0-.83,0-1.67,0-2.5q0-32.49,0-65c0-1,.11-2,.19-3.18,4.16-1.09,8.3-.47,12.38-.45,2.14,0,3,1.93,4,3.43q15.09,22.35,30.16,44.72a13.88,13.88,0,0,0,3.86,4.1v-51.7c4.31-1.18,8.25-.49,12.11-.57C534.27,416.7,534.63,473.85,533.78,485.8Z" transform="translate(-104.33 -232.86)"/><path class="cls-3" d="M262.66,422.85v19.8H292.2a41.7,41.7,0,0,1,.24,10.31H262.83v22.2h37.56a28.8,28.8,0,0,1,.33,9.84c-1.1,1-2.14.79-3.11.79q-21.74,0-43.46,0c-4.65,0-4.68,0-4.69-4.67q0-32,0-63.94c0-4.62,0-4.64,4.69-4.65q20.47,0,41,0c1.14,0,2.34-.27,3.71.65a43.54,43.54,0,0,1,.06,9.67Z" transform="translate(-104.33 -232.86)"/><path class="cls-3" d="M459.77,413.21c.54,2.93.1,6,.21,8.83-1.46,1.38-2.87.94-4.14.94-9.67,0-19.33.1-29,0-2.85,0-3.8,1-3.72,3.76.16,5.13.05,10.27.05,16H452.9c1,3.5.78,6.72.1,10.43H438.05c-3.84,0-7.67.07-11.5,0-2.18-.05-3.46.45-3.42,3,.11,6.15,0,12.29,0,19.21h38.16c.93,3.49.56,6.71.35,9.73-1.27,1.11-2.49.76-3.61.76q-21.49,0-43,0c-4.62,0-4.66,0-4.66-4.7q0-32,0-64c0-4.51,0-4.55,4.28-4.56q20.74,0,41.49,0C457.32,412.53,458.53,412.25,459.77,413.21Z" transform="translate(-104.33 -232.86)"/><path class="cls-5" d="M240.6,444.1c-1.84,3.11-5.13,4.16-6.78,6.55-1.36.31-1.82-.42-2.34-1.06-3.42-4.3-8.13-5.36-13-4.1s-8.22,5.06-9.23,10.19c-1.09,5.52-1,11,3,15.57,5.19,6,12.55,6.4,18.45,1,.73-.66,1.46-1.32,2.37-2.16,3.16,1.49,5,4.23,7.24,6.47-6,9.82-23.62,12.93-34.66,3.43-11.43-9.84-12.6-26.37-2-37.24A24.93,24.93,0,0,1,240.6,444.1Z" transform="translate(-104.33 -232.86)"/><path class="cls-6" d="M431.89,515.37v12c0,1.37.06,2.75-1.93,2.76s-2-1.33-2-2.71V504.74c2.47-1.21,3.51-.36,4.42,1.4,2.53,4.87,5.19,9.67,8.12,15.07L447.69,508c.48-.87.94-1.76,1.37-2.66.63-1.33,1.74-1.44,2.95-1.13s1.12,1.49,1.12,2.44c0,7,0,14,0,21,0,1.27-.16,2.34-1.78,2.43-1.81.1-2.25-.88-2.24-2.47.05-4.33,0-8.66,0-13.84-2.8,3.66-4.14,7.22-6,10.48-.64,1.15-1,2.63-2.67,2.63s-2.06-1.47-2.68-2.63c-1.63-3-3.24-6.06-4.86-9.09Z" transform="translate(-104.33 -232.86)"/><path class="cls-7" d="M496.28,504.45c2.17-.22,4.28-1.31,4.32,1.82.09,7.79,0,15.58,0,23.17-2.75,1.39-4.09.17-5.35-1.65-2.47-3.55-5-7-7.57-10.52-1-1.42-2.19-2.76-4-5,0,5.71-.08,10.32,0,14.93.06,3-1.27,3.45-3.9,2.41V504.72c2-1.22,3.28-.6,4.53,1.18,2.86,4.08,5.82,8.1,8.79,12.1.76,1,1.12,2.45,3.1,3Z" transform="translate(-104.33 -232.86)"/><path class="cls-7" d="M124.89,529.45c-2.93,1.44-4.16-.14-5.37-1.84A122.3,122.3,0,0,0,108,513.31c0,4.66-.1,9.33,0,14,.08,2.68-1.19,3.15-3.74,2.54V504.56c1.86-1,3.23-.42,4.45,1.34,2.57,3.69,5.22,7.32,7.88,11,1.06,1.43,1.8,3.17,4.26,4.4,0-4.56-.1-8.75,0-12.93.06-1.54-1.19-4.15,1.91-4.14s1.94,2.57,2,4.14C125,515.45,124.89,522.57,124.89,529.45Z" transform="translate(-104.33 -232.86)"/><path class="cls-6" d="M214.49,515.12V504.65c4.08-.49,4.18-.49,4.21,2.61.07,6.66,0,13.32.06,20,0,3-1.49,3.29-4,2.51-1-3.33.12-6.87-.72-10.47-3.92-.74-7.82-.35-12.21-.27,0,3.14,0,5.93,0,8.71,0,2.53-1.4,2.63-3.56,2.09V504.47c2.11-.69,3.58-.61,3.55,2.17s0,5.29,0,8.17C206.17,515.62,210.16,515.3,214.49,515.12Z" transform="translate(-104.33 -232.86)"/><path class="cls-7" d="M140.29,530.14c-7.79,0-13.12-5.46-12.93-13.23.19-7.61,5.44-12.85,12.9-12.84,7.85,0,13,5.28,12.77,13.32C152.84,524.94,147.93,530.9,140.29,530.14Zm8.78-12.86c0-5-2.36-8.32-6.61-9.7-3.46-1.12-7.06.33-9.38,3.78-2.64,3.92-1.76,10.58,1.81,13.72a7.93,7.93,0,0,0,10.49.25A9.23,9.23,0,0,0,149.07,517.28Z" transform="translate(-104.33 -232.86)"/><path class="cls-8" d="M176,508.09c-.06.15-.22.33-.18.45,1.4,5.23.55,9.8-4.12,13.19l4.69,7.68c-2.08,1-3.61,1.18-4.85-.76-.36-.56-.71-1.13-1.08-1.68-3.08-4.59-3.08-4.59-8.85-4.13-1.23,1.41-.66,3.14-.68,4.73,0,2.8-1.46,2.85-3.7,2.1V504.5c6.66-.83,13.23-1.4,18.82,3.64Zm-15,10.18c5.16,1.53,8.44,1,10.38-1.78,1.49-2.12,1.75-4.39.1-6.44-2.79-3.47-6.52-3.18-10.48-2.4Z" transform="translate(-104.33 -232.86)"/><path class="cls-6" d="M401.84,521.85l4.55,7.61c-3.65,1.82-4.76-.72-6.11-2.77-3-4.51-3-4.51-8.88-3.62-.88,1.53-.39,3.22-.47,4.84-.07,1.35-.43,2.23-2,2.2s-1.88-1-1.88-2.29c0-5.81,0-11.61,0-17.42v-6.25c4.08,0,7.71-.28,11.28.06,7.1.68,10.5,8.86,6.24,14.65A37,37,0,0,1,401.84,521.85ZM391,519.06c4.16-.17,8.2,1.17,10.61-3,1.22-2.15,1.25-4.67-.56-6.46-2.83-2.79-6.36-2.8-10.05-1.79Z" transform="translate(-104.33 -232.86)"/><path class="cls-9" d="M252.78,530.07V504.32a55.31,55.31,0,0,1,12.47,0c6.84.93,10.76,6.64,10.23,14.22-.47,6.68-4.9,11.21-11.48,11.5C260.36,530.2,256.71,530.07,252.78,530.07Zm3.7-22.68v19.49c5.27.21,10.42,1.27,13.69-4.07,2.3-3.76,2.41-7.62,0-11.3C266.84,506.49,261.76,507.06,256.48,507.39Z" transform="translate(-104.33 -232.86)"/><path class="cls-6" d="M360.48,529.47c3.27-7.83,6.38-15.34,9.56-22.83.49-1.16.86-2.54,2.64-2.58a2.83,2.83,0,0,1,3,2c3.21,7.82,6.47,15.62,9.73,23.48-2.71,1.14-4.53.58-5.18-2.11-.73-3-2.51-4-5.45-3.64a16.22,16.22,0,0,1-4,0c-2.73-.32-4.44.62-5.12,3.42C365.05,529.77,363.57,530.93,360.48,529.47Zm16.87-9.27c-1.53-3.77-2.79-6.88-4-10-1.74,3.29-3.7,6.15-4.24,9.76C371.69,520.64,374.11,520.39,377.35,520.2Z" transform="translate(-104.33 -232.86)"/><path class="cls-10" d="M279.32,504.08c5,0,9.61,0,14.25,0,1,0,2.12,0,2.28,1.31.18,1.51-.84,2.1-2.13,2.13-3.45.05-6.89,0-10.34,0-.86,2.77-.52,5-.34,7.73h9.17c1.22,0,2.43.12,2.46,1.74s-1,1.87-2.34,1.86h-9c-.74,2.6-.45,4.83-.27,7.37,2.57.74,5.05.31,7.47.41,1.16.05,2.33,0,3.49,0s2.4.23,2.49,1.77c.1,1.78-1.27,1.66-2.41,1.67-4.81,0-9.61,0-14.74,0Z" transform="translate(-104.33 -232.86)"/><path class="cls-6" d="M463.37,507.74a17.69,17.69,0,0,0-.19,7.56c2.9,0,5.67,0,8.44,0,1.28,0,3-.33,3,1.63.1,2.37-1.82,1.9-3.23,1.92-2.63.06-5.27,0-8,0-.9,2.55-.37,4.81-.45,7.38,3,.81,5.75.3,8.49.44,1.16.06,2.34,0,3.49.08a1.68,1.68,0,0,1,1.58,2.09c-.13,1-1,1.22-1.85,1.23H459.36V504.4c4.76-.66,9.71-.17,14.63-.29,1.11,0,2,.36,1.89,1.69s-1,1.66-2.07,1.7c-2.17.08-4.33,0-6.49.05C466,507.57,464.73,507.67,463.37,507.74Z" transform="translate(-104.33 -232.86)"/><path class="cls-6" d="M339.87,529.54c-2.8,1.24-4.61.52-5.2-2.12-.7-3.13-2.61-3.92-5.47-3.59a11,11,0,0,1-3,0c-3.34-.52-5.44.68-6.23,4.07-.66,2.83-2.62,2.37-5,1.72,3.33-8,6.58-15.78,9.81-23.59.47-1.15,1-1.94,2.49-2a2.77,2.77,0,0,1,2.94,2.07C333.39,514,336.64,521.73,339.87,529.54Zm-12.31-20.17a66.6,66.6,0,0,0-4.4,10.7c3,.83,5.63,1.21,8.32-.23C330.77,516.17,328.9,513.19,327.56,509.37Z" transform="translate(-104.33 -232.86)"/><path class="cls-9" d="M345.85,522.9c-.52,6.82-.52,6.82-4,6.9-.73-4.23-.25-8.51-.33-12.77s0-8.25,0-12.83c4.11,0,7.89-.3,11.61.07,4.75.48,7.64,4.07,7.73,8.83s-2.54,8.17-7.45,9C351,522.56,348.56,522.64,345.85,522.9Zm-.48-15.43c-.12,4-.58,7.73.31,11.37,7.85.7,11.26-.94,11.46-5.35C357.35,508.81,353.66,506.81,345.37,507.47Z" transform="translate(-104.33 -232.86)"/><path class="cls-6" d="M222.47,524.43c1.73,0,2.7,1.44,4.12,1.81,1.9.5,3.75,1.32,5.82.56,1.71-.63,3-1.58,3.06-3.48a3.33,3.33,0,0,0-2.54-3.31,37.75,37.75,0,0,0-3.8-1.13,13.12,13.12,0,0,1-4.53-2c-4.46-3.23-4.2-9.43.75-11.8a13.23,13.23,0,0,1,12,.32c.89.44,1.71,1,1,2.32a1.72,1.72,0,0,1-2.4,1c-1.08-.41-2.2-.72-3.24-1.21a4.81,4.81,0,0,0-4.29.18c-1.49.67-2.58,1.58-2.67,3.25a3.38,3.38,0,0,0,2.45,3.39c2.32.9,4.8,1.37,7.06,2.38,4.56,2,5.82,6.17,3.34,10.22a5.18,5.18,0,0,1-3,2.55c-4.09,1-8.22,1.27-12.16-.58C221.38,528,220.33,526.46,222.47,524.43Z" transform="translate(-104.33 -232.86)"/><path class="cls-8" d="M523.07,507.14A13.82,13.82,0,0,1,537.46,505c1.08.43,2.79.74,1.89,2.71-.83,1.8-2,1.1-3.3.58-2.29-.9-4.6-1.93-7.12-.37-2.89,1.78-3.1,4.58-.09,6.17,2,1.07,4.39,1.47,6.56,2.28,2.81,1.05,4.83,2.55,4.77,6.12-.09,5.51-1.75,7.49-7.37,7.62-3,.07-6,.32-8.73-1.43-1.86-1.21-1.88-1.59-.36-4.31,2.1.44,3.69,2.1,5.89,2.45a8.08,8.08,0,0,0,4.39-.24,3.57,3.57,0,0,0,2.54-3.34,3.25,3.25,0,0,0-2.16-3.09,24.65,24.65,0,0,0-3.29-1.16c-8-2.28-9.23-4.18-7.93-11.95Z" transform="translate(-104.33 -232.86)"/><path class="cls-10" d="M176,508.14c.11-1.12.21-2.25.37-4,6,0,12.09,0,18.17,0,1,0,1.44.62,1.41,1.6a1.7,1.7,0,0,1-1.52,1.67c-1.92.51-4-.35-6.37.87,0,5.54,0,11.33,0,17.11a31,31,0,0,1-.11,3.48c-.11,1-1,1.21-1.83,1.23s-1.73-.21-1.85-1.21a28.94,28.94,0,0,1-.11-3.49c0-5.78,0-11.56,0-17.53-3.08-.28-5.64-.77-8.2.22Z" transform="translate(-104.33 -232.86)"/><path class="cls-8" d="M415.19,508.2c-2.36-1.11-4.4-.41-6.34-.77a1.73,1.73,0,0,1-1.66-2c.11-1.06.92-1.28,1.79-1.29q8,0,16,0c1,0,2.05.2,2,1.59s-1,1.65-2,1.79c-1.8.24-3.66-.29-5.87.61,0,5.8.08,11.77-.06,17.74,0,1.51,1.26,4.14-1.83,4.18s-1.89-2.57-1.92-4.11C415.11,519.94,415.19,514,415.19,508.2Z" transform="translate(-104.33 -232.86)"/><path class="cls-5" d="M523.15,507.06h-8c-.75,6.12-.23,11.73-.39,17.31,0,1.33,0,2.66,0,4s-.76,1.7-1.93,1.71-1.83-.54-1.83-1.76c0-1.5,0-3,0-4.48V508.18c-2.16-1.58-4.22-.78-6.14-1-1.17-.12-1.89-.51-1.8-1.79.08-1.06.86-1.29,1.73-1.29,5.31,0,10.62.07,15.93-.05,2.39,0,1.72,2,2.43,3.05Z" transform="translate(-104.33 -232.86)"/><path class="cls-10" d="M243.27,516.6c0-3.14,0-6.29,0-9.43,0-1.46-.29-3.15,2.07-3.08,2,.07,1.78,1.56,1.78,2.85q0,10.17,0,20.35c0,1.28.29,2.77-1.78,2.82-2.34,0-2.07-1.62-2.08-3.09C243.26,523.55,243.27,520.07,243.27,516.6Z" transform="translate(-104.33 -232.86)"/></svg>