<svg width="329" height="68" viewBox="0 0 329 68" fill="none" xmlns="http://www.w3.org/2000/svg">
<g clip-path="url(#clip0_303_92)">
<path d="M21.139 37.518C21.1744 37.7229 21.197 37.9297 21.2069 38.1374C21.354 41.4744 24.1254 48.0354 19.7929 48.8838C17.5305 49.1864 16.0175 48.2701 15.6244 45.9596C14.4763 39.2431 13.4752 32.5012 12.409 25.7677C12.4854 22.0913 8.46678 13.9523 13.0425 12.3913C14.9429 11.9586 16.7189 12.9569 17.2845 15.0864C18.3026 16.7832 17.2279 24.4979 20.4971 22.3685C28.2911 18.7373 27.9743 5.77375 18.164 6.74658C6.28639 6.99262 7.93512 20.1965 1.99349 17.5128C0.395671 16.752 0.107215 15.6435 0.514447 14.0259C5.90461 -5.13667 40.6155 -1.40654 30.5365 20.3804C29.3205 22.623 29.2554 22.589 31.8091 23.3045C38.5369 25.188 43.4831 32.1646 43.5764 39.1413C43.3982 57.3593 21.5548 66.1431 8.48375 57.167C4.2672 53.813 1.55798 49.6219 2.37527 43.8754C2.79664 40.923 5.02511 39.4241 7.42608 40.4818C9.12288 41.2425 8.98148 42.6226 8.84008 44.0931C8.49789 64.6329 44.2325 53.9035 36.0709 34.2687C34.4335 29.4809 28.9528 27.1251 24.3036 28.016C19.3461 28.7428 19.1227 27.637 20.5763 33.8728C20.9524 35.448 20.91 36.2737 21.139 37.518Z" fill="#7FC6BA"/>
<path d="M90.5749 14.0966C92.1756 3.93555 110.586 4.40783 109.48 11.4128C104.701 18.0303 96.4374 4.11938 97.1246 24.2689C96.8163 27.5748 104.644 21.5512 106.07 27.9453C105.634 33.556 96.426 29.874 97.0397 33.8332C97.0114 42.2776 96.87 40.0067 96.7343 48.4483C96.6704 51.147 95.919 53.7849 94.5511 56.1121C92.0455 61.2789 79.3478 61.2902 80.1283 55.2977C80.544 53.3803 82.4529 52.6252 84.2826 52.9476C90.3769 54.158 90.722 45.4789 90.6993 45.4789C90.6767 45.4789 90.0602 17.3686 90.5749 14.0966Z" fill="#7FC6BA"/>
<path d="M70.7959 36.7827C71.1013 53.1484 65.0522 41.234 60.9177 48.0297C60.6887 48.3944 60.5644 48.8151 60.5585 49.2457C60.5585 50.6456 61.8029 51.3922 63.0868 51.9352C63.1546 51.9663 63.2282 51.9917 63.2989 52.0172C83.3777 58.6319 75.5752 41.1775 76.9327 29.9588C76.9454 29.849 76.951 29.7385 76.9496 29.6279C76.9327 25.9911 81.7261 28.3129 83.9235 26.4323C84.0521 26.3188 84.1958 26.2237 84.3505 26.1495C87.1785 24.8203 85.8607 20.4115 82.7046 20.5953C81.2906 20.632 79.8766 20.8215 78.4626 20.9233C77.6679 20.9799 76.9411 20.994 76.9383 19.8232C76.9185 15.5812 76.5763 6.93321 83.027 8.74313C83.1355 8.77333 83.2414 8.8121 83.3437 8.85908C87.3425 10.5898 92.1614 7.8806 88.2814 3.98644C88.1883 3.88999 88.086 3.80285 87.976 3.72626C83.5445 0.564561 75.8269 1.81454 72.4616 6.13289C72.306 6.33085 72.0685 6.45528 71.9271 6.66173C71.3926 7.44225 70.1285 8.992 70.3067 20.3464C70.5188 34.5175 70.7902 36.3557 70.7959 36.7827Z" fill="#7FC6BA"/>
<path d="M66.5567 30.8638C67.0403 40.7392 57.2243 48.6067 49.8263 40.1538C45.5843 35.2896 44.4078 29.0708 43.6047 22.8492C42.8157 18.2113 49.9139 17.1508 50.6747 21.6671C51.7832 26.3758 52.4252 31.3248 55.0609 35.5243C60.1145 41.6498 59.3793 24.9363 58.8617 22.6569C58.8137 20.6519 59.5065 19.17 61.7435 18.9664C67.7558 18.4772 66.3814 26.766 66.5567 30.8638Z" fill="#7FC6BA"/>
<path d="M129.997 35.9089C129.864 42.7584 135.037 55.2044 142.972 47.6932C144.926 45.5326 147.214 41.6158 150.509 44.0649C156.06 50.3657 134.672 64.2455 126.836 48.6095C119.279 33.8332 122.028 16.4551 134.171 5.10354C139.929 0.0923242 146.188 0.117776 150.956 4.66803C159.632 13.0135 150.107 21.8085 147.155 10.4173C143.702 2.15676 135.648 11.4043 133.58 16.0564C129.816 23.1122 129.423 28.0556 129.997 35.9089Z" fill="#7FC6BA"/>
<path d="M198.752 31.5425C197.872 46.0841 192.53 75.303 172.253 60.6709C170.327 59.3078 171.996 55.999 174.289 56.1829C175.873 56.1829 177.174 56.9634 178.531 57.5969C182.358 59.4011 184.753 58.68 186.733 54.8848C187.032 53.7904 191.899 45.2922 188.54 46.7147C173.936 51.5223 176.221 23.7457 183.808 26.2852C188.376 28.1687 183.899 33.8643 184.3 37.6425C184.343 38.0525 184.385 38.4654 184.402 38.8783C184.442 39.8483 184.569 40.8579 185.454 41.0898C186.472 41.3726 189.886 39.8766 190.392 38.9801C192.997 35.9372 191.617 25.0862 195.765 26.1523C197.906 26.2966 198.964 28.7993 198.752 31.5425Z" fill="#7FC6BA"/>
<path d="M155.169 42.7357C154.798 39.6547 154.99 36.5319 155.735 33.5193C156.473 29.0963 163.594 30.3576 162.505 34.6052C161.422 39.3789 161.954 44.0592 162.91 48.7707C163.192 50.5127 162.867 51.9069 160.483 52.2209C154.949 53.0438 155.605 45.7504 155.169 42.7357Z" fill="#7FC6BA"/>
<path d="M160.791 20.304C162.412 20.4171 164.01 21.1524 164.649 22.9878C165.483 26.059 161.388 26.4182 159.406 27.2666C157.081 29.3395 156.49 28.805 157.143 25.6348C157.5 23.412 157.434 20.8555 160.791 20.304Z" fill="#7FC6BA"/>
<path d="M174.151 43.9037C174.804 47.3454 175.947 51.3526 172.075 52.2519C169.847 52.679 168.198 51.4912 167.743 49.2401C165.955 40.841 167.115 29.5063 170.853 19.4019C171.985 16.3477 159.259 14.3426 161.496 9.1702C162.91 5.88406 164.889 6.58258 167.409 7.82407C170.955 9.56895 174.521 12.7363 175.109 11.5344C176.427 8.85346 178.401 6.29695 180.126 3.85639C182.954 -0.58357 188.953 2.93163 186.006 7.60349C184.877 9.36816 180.081 15.1062 182.556 15.6718C187.906 16.8878 189.102 17.4251 193.469 16.0309C197.075 14.8799 199.04 19.8233 195.692 21.7718C191.469 24.2208 185.157 23.1094 183.319 22.64C180.404 21.8962 179.19 21.2853 178.116 22.3572C178.116 22.3572 175.455 27.6851 174.931 29.6619C173.297 35.8269 173.879 42.4869 174.151 43.9037Z" fill="#7FC6BA"/>
<path d="M229.102 33.2054C236.511 32.3004 238.646 39.0508 232.272 39.1611C230.844 39.0452 229.444 38.6747 227.982 38.7567C222.326 39.0791 218.152 44.9472 220.202 49.8425C229.235 64.1012 251.474 48.9573 241.635 34.0538C238.078 26.0109 228.957 22.5975 225.595 14.5406C220.541 1.22068 240.9 -4.4636 246.582 6.39592C247.373 7.87496 247.959 9.37946 246.174 10.604C242.02 13.4857 241.036 5.91799 236.896 6.263C232.317 5.38349 229.472 10.5955 232.043 14.2408C233.344 16.5371 235.411 18.1349 237.357 19.8402C242.509 24.365 246.901 29.4554 249.178 36.0334C255.838 54.5907 232.832 67.8003 219.071 57.6562C207.196 49.1383 215.558 32.2665 229.102 33.2054Z" fill="#7FC6BA"/>
<path d="M271.335 29.8344C263.4 19.2775 251.539 28.986 252.249 38.8161C254.814 56.9295 278.15 46.2142 271.335 29.8344ZM265.142 41.1068C263.315 43.833 257.042 42.255 257.809 38.8105C257.461 36.2653 260.283 33.0894 262.577 31.8508C267.367 30.0748 267.449 39.1442 265.142 41.1068Z" fill="#7FC6BA"/>
<path d="M297.706 43.9235C293.747 38.3382 298.914 31.8225 296.974 26.0138C294.822 23.7796 294.363 23.7033 291.688 25.3068C291.411 25.4761 291.094 25.5693 290.769 25.5767C290.444 25.5842 290.123 25.5057 289.839 25.3492C283.481 22.4561 275.953 29.6166 275.269 34.6986C273.484 43.635 281.536 50.8973 289.194 46.4772C290.837 45.5496 291.917 44.8709 293.207 47.0428C295.059 50.1734 300.398 47.0626 297.706 43.9235ZM287.525 42.4756C277.568 49.0195 280.967 27.6879 288.278 29.1557C292.197 31.6811 290.218 40.117 287.531 42.4756H287.525Z" fill="#7FC6BA"/>
<path d="M310.277 18.2989L309.965 18.3866C308.257 18.8196 306.653 19.5887 305.246 20.649C303.554 21.8827 302.165 23.4851 301.185 25.335C299.131 29.1839 305.627 30.564 307.406 27.0799C308.063 26.1979 308.865 25.4331 309.776 24.8175C317.471 20.3945 325.358 28.7427 321.532 36.4801C319.793 40.3771 316.948 42.8856 312.53 43.2419C309.324 43.7396 312.932 34.526 313.204 32.7783C313.899 30.6714 313.02 28.9407 311.193 28.4034C306.295 27.4419 306.227 36.4745 305.39 39.8285C305.542 42.6876 301.368 40.0745 300.978 43.4201C300.673 45.2978 302.058 46.1264 303.407 46.8448C304.182 47.2576 304.686 47.6932 304.66 48.6321C304.575 54.0053 304.244 59.4407 305.019 64.7828C305.398 66.7906 306.86 67.5627 308.662 67.311C310.359 67.0734 310.766 65.7839 310.67 64.0729C310.449 60.1137 310.432 56.1376 310.387 52.1671C310.347 49.0563 310.387 49.0563 313.543 48.6914C321.379 47.7865 327.083 42.3822 328.248 33.4202C329.47 23.8729 319.312 16.2713 310.277 18.2989Z" fill="#7FC6BA"/>
</g>
<defs>
<clipPath id="clip0_303_92">
<rect width="328" height="66.6333" fill="white" transform="translate(0.347595 0.68335)"/>
</clipPath>
</defs>
</svg>
