<svg width="180" height="72" fill="none" xmlns="http://www.w3.org/2000/svg"><path fill-rule="evenodd" clip-rule="evenodd" d="M173.818 10.894c3.46.516 6.102 3.574 6.015 6.962 0 .056-.004.115-.008.179l-.072 1.079c-1.313 19.713-1.658 24.755-1.721 25.509-.282 3.479-3.059 6.518-6.463 7.065l-5.256.77-1.131 7.097c-.948 5.443-4.423 8.565-9.537 8.565h-48.134l-.555.702c-1.591 2.008-3.817 3.166-6.102 3.178H77.397c-2.301-.012-4.535-1.17-6.134-3.178l-.555-.702H22.7c-4.855 0-8.787-3.574-9.557-8.692l-1.138-7.204-3.793-.532c-3.415-.551-6.204-3.586-6.486-7.061C1.71 44.432.036 18.959.004 18.193c-.147-4.102 2.833-6.772 5.848-7.283l4.673-.822.429-.48c1.67-1.852 3.911-2.999 6.311-3.22 14.972-1.385 25.977-1.536 38.72-1.715h.15c2.04-.027 4.118-.055 6.265-.09l.853-.013.543-.654c1.476-1.774 3.579-2.904 5.764-3.11C75.465.277 82.173 0 88.961 0s13.484.278 19.364.801a8.526 8.526 0 015.768 3.047l.543.647.841.016c3.147.063 6.276.107 9.042.142l.111.004c12.294.175 25.005.357 39.148 1.734 2.436.238 4.796 1.492 6.474 3.444l.425.491 3.141.568z" fill="#fff"/><path fill-rule="evenodd" clip-rule="evenodd" d="M175.826 17.757c.036-1.436-1.238-2.662-2.599-2.896-1.948-.337-3.169-.615-5.054-.909-.841-1.888-2.67-3.368-4.784-3.574-18.638-1.813-34.427-1.523-51.375-1.932-.405-1.892-2.055-3.467-4.035-3.654-11.762-1.043-26.27-1.043-38.033 0-2.011.19-3.681 1.81-4.05 3.737-17.13.326-29.722.131-48.26 1.85-2.044.19-3.813 1.582-4.69 3.371-2.337.357-4.078.722-6.415 1.111-1.25.21-2.59 1.194-2.523 3.197l.385 5.92H9.63a.59.59 0 01.587.595v1.78a.59.59 0 01-.587.596H4.575l.564 9.192h5.074c.321 0 .587.266.587.591v1.785a.592.592 0 01-.587.591H5.32l.15 2.432c.08.813.168 1.758.25 2.757.132 1.635 1.532 3.182 3.111 3.436 2.023.317 4.642.623 6.665.916l1.615 10.192c.464 3.094 2.681 5.272 5.59 5.272h50.632c.389 1.865 2.055 3.868 4.05 3.88h23.451c1.995-.012 3.665-2.015 4.054-3.88h50.756c3.733 0 5.09-2.372 5.59-5.272l1.587-9.942c2.602-.372 5.502-.758 8.104-1.166 1.579-.254 2.98-1.801 3.111-3.436.127-1.55.38-4.256.468-5.189h-5.356a.59.59 0 01-.587-.59v-1.786a.59.59 0 01.587-.591h5.55l.504-9.192h-5.47a.59.59 0 01-.588-.595v-1.781a.59.59 0 01.588-.596h5.656l.437-6.22z" fill="#090909"/><path fill-rule="evenodd" clip-rule="evenodd" d="M78.742 53.212v.02c0 1-.703 1.852-1.762 1.852-1.051 0-1.777-.873-1.777-1.873v-.02c0-1.003.706-1.852 1.757-1.852 1.06 0 1.782.869 1.782 1.873zm1.963 0v-.02c0-1.992-1.587-3.59-3.725-3.59-2.142 0-3.749 1.618-3.749 3.61v.02c0 1.991 1.587 3.59 3.73 3.59 2.138 0 3.744-1.619 3.744-3.61zm34.931 2.043l-1.448-1.032c-.417.504-.841.841-1.567.841-.972 0-1.654-.813-1.654-1.852v-.02c0-1.012.682-1.833 1.654-1.833.666 0 1.123.317 1.519.813l1.448-1.123c-.615-.852-1.527-1.447-2.947-1.447-2.099 0-3.658 1.587-3.658 3.61v.02c0 2.07 1.595 3.59 3.578 3.59 1.54 0 2.42-.667 3.075-1.567zm34.356-3.281l.773 1.971h-1.555l.782-1.971zm3.899 4.709l-2.955-6.99h-1.857l-2.951 6.99h2.023l.492-1.242h2.678l.508 1.242h2.062zm-9.235 0V49.74h-2.031l-1.659 2.686-1.654-2.686h-2.031v6.943h1.88v-3.967l1.766 2.697h.039l1.778-2.717v3.987h1.912zm-9.152-1.639v1.639h-5.634V49.74h5.582v1.639h-3.678v1.047h3.333v1.52h-3.333v1.098h3.73zm-7.657 1.639V49.74h-1.904v3.67l-2.856-3.67h-1.794v6.943h1.901v-3.809l2.967 3.809h1.686zm-10.553 0h1.932V49.74h-1.932v6.943zm-13.786-1.639v1.639h-5.633V49.74h5.582v1.639H99.78v1.047h3.332v1.52H99.78v1.098h3.728zm-7.359-.503v-.02c0-1.302-.991-1.817-2.59-2.163-.96-.218-1.198-.356-1.198-.673v-.02c0-.247.23-.445.694-.445.615 0 1.31.238 1.944.682l.96-1.357c-.754-.606-1.674-.924-2.852-.924-1.667 0-2.69.932-2.69 2.222v.02c0 1.428 1.142 1.844 2.618 2.182.94.218 1.17.377 1.17.662v.02c0 .298-.277.476-.793.476-.801 0-1.567-.286-2.25-.833l-1.07 1.282c.853.761 2.023 1.15 3.249 1.15 1.686 0 2.808-.845 2.808-2.261zm-7.47-4.8v3.847c0 2.242-1.277 3.222-3.249 3.222-1.976 0-3.213-1-3.213-3.174V49.74h1.952v3.856c0 1.004.507 1.48 1.281 1.48.773 0 1.277-.456 1.277-1.428V49.74h1.952zm-17.039 0v6.942h-1.92v-2.638h-2.47v2.638h-1.924V49.74h1.924v2.599h2.471V49.74h1.92zm-8.152 1.685V49.74h-6.086v1.686h2.083v5.257h1.924v-5.257h2.079zm-7.764-1.686v1.686h-3.63v1.179h3.285v1.598h-3.285v2.48H50.17V49.74h5.554zm-10.918 2.234l.774 1.971h-1.56l.786-1.971zm3.896 4.709l-2.955-6.99h-1.853l-2.956 6.99h2.024l.495-1.242h2.678l.504 1.242h2.063zm-10.79-4.431v-.025c0-.543-.397-.82-1.04-.82h-1.261v1.666h1.269c.654 0 1.031-.318 1.031-.822zm.507 2.01l1.655 2.42h-2.222l-1.396-2.102h-.845v2.103h-1.925V49.74h3.285c1.06 0 1.793.278 2.258.754.408.397.614.932.614 1.615v.02c0 1.063-.563 1.765-1.424 2.134zm-6.32-1.07v-.02c0-2.004-1.436-3.432-3.915-3.432h-2.678v6.943h2.638c2.5 0 3.956-1.488 3.956-3.491zm-1.971.008v.02c0 1.122-.766 1.757-1.916 1.757h-.782v-3.531h.782c1.15 0 1.916.643 1.916 1.754zm14.25-11.247v-8.72c0-10.62-6.07-16.606-13.524-16.606-7.458 0-13.524 5.986-13.524 16.606v8.72c0 .182.123.31.306.31h7.025c.187 0 .31-.128.31-.31v-2.539c0-.187.123-.31.31-.31l11.103.004v.004h.044c.186 0 .31.127.31.31v2.543a.29.29 0 00.305.285l7.026.012c.186 0 .31-.127.31-.31zm-7.645-10.997l.004 2.102c0 .183-.123.31-.309.31H25.332v-.012h-.052c-.178 0-.297-.119-.305-.294h-.004v-2.106c0-3.872 2.638-7.022 5.883-7.022 3.241 0 5.88 3.15 5.88 7.022zm60.285 10.997v-8.72c0-10.62-6.066-16.606-13.524-16.606-7.458 0-13.524 5.986-13.524 16.606v8.72c0 .182.127.31.31.31h7.025c.187 0 .31-.128.31-.31v-2.539c0-.187.123-.31.305-.31l11.108.004v.004h.044c.186 0 .31.127.31.31v2.543c.011.17.126.285.301.285l7.03.012c.182 0 .305-.127.305-.31zm-7.64-10.997l.004 2.102c0 .183-.124.31-.31.31h-11.1v-.012h-.052c-.174 0-.293-.119-.301-.294h-.004v-2.106c0-3.872 2.638-7.022 5.88-7.022 3.244 0 5.882 3.15 5.882 7.022zm74.431-1.365c0 3.824-1.483 7.24-4.177 9.612-2.499 2.202-5.931 3.365-9.922 3.365-4.118 0-7.474-1.111-9.973-3.313-2.666-2.337-4.13-5.768-4.13-9.664 0-3.828 1.476-7.232 4.153-9.589 2.484-2.181 5.911-3.336 9.898-3.336s7.419 1.147 9.927 3.32c2.721 2.361 4.224 5.773 4.224 9.605zm-14.099 5.844c4.071 0 6.911-2.404 6.911-5.852 0-3.348-2.928-5.784-6.963-5.784-4.046 0-6.866 2.376-6.866 5.784 0 4.043 3.475 5.852 6.918 5.852zm-17.511 6.26v.254a.293.293 0 01-.309.31h-7.034c-.187 0-.31-.124-.31-.31v-.254h-.008V27.92s-3.951.873-5.038 8.823h-.012a.285.285 0 01-.297.242h-4.42a.286.286 0 01-.297-.242h-.008c-1.091-7.95-5.042-8.823-5.042-8.823v13.846h-.004v.182c0 .186-.123.31-.31.31h-7.034a.293.293 0 01-.309-.31v-.182h-.004V17.63h.004v-.234c0-.183.127-.306.309-.306h1.452c5.503 0 10.997 3.674 13.362 9.359l.091.218.091-.218c2.365-5.685 7.859-9.359 13.362-9.359h1.456c.186 0 .309.123.309.306v24.299zm-65.145-5.352v.032l-1.48 5.597-.035.128a.29.29 0 01-.27.158H48.742c-.186 0-.313-.123-.313-.305V17.689c0-.182.127-.309.313-.309h7.371c.182 0 .306.127.306.31v.293h.004l-.008 17.829c0 .186.127.309.313.309h10.104c.135 0 .223.091.223.222z" fill="#fff"/></svg>