<svg xmlns="http://www.w3.org/2000/svg" viewBox="0 0 122.69 76.71"><defs><style>.cls-1{fill:#005796;}.cls-2{fill:#93c83d;}</style></defs><g id="Layer_2" data-name="Layer 2"><g id="Layer_1-2" data-name="Layer 1"><g id="Vector_Smart_Object" data-name="Vector Smart Object"><polygon class="cls-1" points="27.53 47.79 44.45 47.79 62.1 19.65 54.29 7.16 27.53 47.79"/><path class="cls-2" d="M68.22,42.78c-17.57-1.58-16.07-3.14-15.89-3.65,1.61-4.24,44.1-14.87,44.27-26.28.27-3.31-3.38-10-47-12.85,31,4.28,41.92,7.51,41.07,11.8,0,6.55-28.2,14-43.2,21.86-6.07,3.19-5.6,3.8-5.83,5.23.15,2.7,7.6,4.88,26.55,3.89"/><polygon class="cls-1" points="96.61 47.79 79.7 47.79 54.29 7.16 69.86 7.16 96.61 47.79"/><path class="cls-1" d="M15.12,64.43H5.3L2.87,67.58H0L10.21,54.49,20.42,67.58H17.56ZM14,63l-3.8-5.08L6.41,63Z"/><polygon class="cls-1" points="21.96 67.58 21.96 54.43 38.01 64.3 38.01 55.03 40.68 55.03 40.68 68.09 24.62 58.22 24.62 67.58 21.96 67.58"/><path class="cls-1" d="M44.25,67.58V55h4.43a20.14,20.14,0,0,1,8.59,1.6q3.4,1.6,3.41,4.61T57.3,66a20.17,20.17,0,0,1-8.71,1.63Zm2.67-11.12v9.69h.94a29,29,0,0,0,3.91-.25A15.18,15.18,0,0,0,55,65.1a5.3,5.3,0,0,0,2.24-1.52,3.63,3.63,0,0,0,0-4.57A5.23,5.23,0,0,0,55,57.5a15,15,0,0,0-3.19-.79,27.3,27.3,0,0,0-3.9-.25Z"/><path class="cls-1" d="M69.9,62.12l6.75,5.46H73.41l-6.29-5.31H66v5.31H63.34V55h3.24l2,0c.5,0,1.11.07,1.82.16a9.46,9.46,0,0,1,1.85.4,4.86,4.86,0,0,1,2.06,1.27A2.52,2.52,0,0,1,75,58.61,2.83,2.83,0,0,1,73.61,61a7.28,7.28,0,0,1-3.71,1.16M66,56.43V61h.85c.78,0,1.46,0,2.06-.08a11.93,11.93,0,0,0,1.77-.31,2.88,2.88,0,0,0,1.36-.71,1.64,1.64,0,0,0,.49-1.2c0-1.5-1.94-2.24-5.82-2.24Z"/><polygon class="cls-1" points="78.75 67.58 78.75 55.03 90.24 55.03 90.24 56.46 81.42 56.46 81.42 59.97 89.98 59.97 89.98 61.4 81.42 61.4 81.42 66.15 90.24 66.15 90.24 67.58 78.75 67.58"/><polygon class="cls-1" points="99.29 56.46 99.29 67.58 96.62 67.58 96.62 56.46 91.54 56.46 91.54 55.03 104.36 55.03 104.36 56.46 99.29 56.46"/><polygon class="cls-1" points="112.22 56.46 112.22 67.58 109.56 67.58 109.56 56.46 104.48 56.46 104.48 55.03 117.3 55.03 117.3 56.46 112.22 56.46"/><rect class="cls-1" x="119.31" y="55.03" width="2.67" height="12.55"/><rect class="cls-1" x="0.04" y="71.74" width="0.9" height="4.77"/><polygon class="cls-1" points="2.2 76.52 2.2 71.52 7.62 75.27 7.62 71.75 8.52 71.75 8.52 76.71 3.1 72.96 3.1 76.52 2.2 76.52"/><path class="cls-1" d="M9.73,76.52V71.74h1.49a6.11,6.11,0,0,1,2.9.62,1.89,1.89,0,0,1,1.15,1.74,2,2,0,0,1-1.14,1.8,6.16,6.16,0,0,1-2.94.62Zm.9-4.23V76h.31a8.74,8.74,0,0,0,1.32-.09,4.72,4.72,0,0,0,1.08-.31A1.93,1.93,0,0,0,14.1,75a1.45,1.45,0,0,0,.27-.87,1.41,1.41,0,0,0-.27-.87,1.86,1.86,0,0,0-.76-.58,5.68,5.68,0,0,0-1.08-.3,8.74,8.74,0,0,0-1.32-.09Z"/><path class="cls-1" d="M16.78,72.37a4.79,4.79,0,0,1,2.66-.73,4.8,4.8,0,0,1,2.67.73,2.11,2.11,0,0,1,1.11,1.76,2.05,2.05,0,0,1-1.1,1.77,4.76,4.76,0,0,1-2.68.72,4.81,4.81,0,0,1-2.68-.72,2.07,2.07,0,0,1-1.1-1.77,2.1,2.1,0,0,1,1.12-1.76m.63,3.13a3.66,3.66,0,0,0,2,.56,3.61,3.61,0,0,0,2-.56,1.61,1.61,0,0,0,.85-1.37,1.64,1.64,0,0,0-.81-1.37,3.63,3.63,0,0,0-2.07-.56,3.6,3.6,0,0,0-2.06.56,1.54,1.54,0,0,0,0,2.74"/><path class="cls-1" d="M24.7,72.37a5.25,5.25,0,0,1,5.34,0,2.11,2.11,0,0,1,1.11,1.76,2.07,2.07,0,0,1-1.1,1.77,4.79,4.79,0,0,1-2.68.72,4.79,4.79,0,0,1-2.68-.72,2.07,2.07,0,0,1-1.1-1.77,2.11,2.11,0,0,1,1.11-1.76m.64,3.13a4,4,0,0,0,4.06,0,1.61,1.61,0,0,0,.85-1.37,1.63,1.63,0,0,0-.82-1.37,4.07,4.07,0,0,0-4.12,0,1.63,1.63,0,0,0-.82,1.37,1.61,1.61,0,0,0,.85,1.37"/><path class="cls-1" d="M34.23,74.44l2.28,2.08H35.42l-2.12-2h-.38v2H32V71.74h1.76l.61.06A3.21,3.21,0,0,1,35,72a1.59,1.59,0,0,1,.69.48,1,1,0,0,1,.26.66,1.11,1.11,0,0,1-.48.89,2.29,2.29,0,0,1-1.26.44m-1.31-2.16V74h.29q.39,0,.69,0a4,4,0,0,0,.6-.11,1,1,0,0,0,.46-.27.68.68,0,0,0,.16-.46c0-.57-.65-.85-2-.85Z"/><polygon class="cls-1" points="40.89 73.81 43.95 71.75 45.13 71.75 41.88 73.89 45.19 76.52 43.97 76.52 41.25 74.3 40.89 74.52 40.89 76.52 39.99 76.52 39.99 71.75 40.89 71.75 40.89 73.81"/><path class="cls-1" d="M50.07,75.32H46.76l-.83,1.2H45l3.44-5,3.45,5h-1Zm-.37-.54-1.29-1.93-1.28,1.93Z"/><path class="cls-1" d="M54.67,74.44,57,76.52H55.86l-2.12-2h-.38v2h-.9V71.74h1.76l.61.06a3.21,3.21,0,0,1,.63.16,1.59,1.59,0,0,1,.69.48,1,1,0,0,1,.26.66,1.11,1.11,0,0,1-.48.89,2.29,2.29,0,0,1-1.26.44m-1.31-2.16V74h.29q.39,0,.69,0a4.21,4.21,0,0,0,.6-.11,1,1,0,0,0,.46-.27.68.68,0,0,0,.16-.46c0-.57-.65-.85-2-.85Z"/><polygon class="cls-1" points="59.41 72.29 59.41 76.52 58.51 76.52 58.51 72.29 56.8 72.29 56.8 71.75 61.13 71.75 61.13 72.29 59.41 72.29"/><rect class="cls-1" x="61.81" y="71.74" width="0.9" height="4.77"/><polygon class="cls-1" points="63.97 76.52 63.97 71.52 69.39 75.27 69.39 71.75 70.29 71.75 70.29 76.71 64.87 72.96 64.87 76.52 63.97 76.52"/><path class="cls-1" d="M75.29,74.11h2.86v.19a2,2,0,0,1-1,1.66,4.25,4.25,0,0,1-2.46.66,4.42,4.42,0,0,1-2.57-.74,1.95,1.95,0,0,1,0-3.5,4.64,4.64,0,0,1,2.65-.74,5.24,5.24,0,0,1,1.63.25,3.87,3.87,0,0,1,1.31.68l-.64.4a2.76,2.76,0,0,0-1-.57,3.87,3.87,0,0,0-1.26-.21,3.63,3.63,0,0,0-2.05.56A1.64,1.64,0,0,0,72,74.12a1.68,1.68,0,0,0,.83,1.36,3.27,3.27,0,0,0,2,.59,3.19,3.19,0,0,0,1.6-.42,1.26,1.26,0,0,0,.76-1H75.29Z"/><path class="cls-1" d="M86.78,76.52,86,75.87a3.42,3.42,0,0,1-2.16.75,3,3,0,0,1-1.57-.4,1.18,1.18,0,0,1-.65-1,.9.9,0,0,1,.32-.69,4.72,4.72,0,0,1,1-.57l.45-.22c-.53-.37-.8-.71-.8-1a.85.85,0,0,1,.47-.76,2.27,2.27,0,0,1,1.2-.29,2.42,2.42,0,0,1,1.18.27.81.81,0,0,1,.48.73.63.63,0,0,1-.11.36,1,1,0,0,1-.33.33l-.4.26-.47.24L86.07,75l.84-.65.57.4-.88.68,1.29,1.06Zm-2.92-2.36-.08,0-.19.09-.23.1-.21.11-.22.12-.18.12a.69.69,0,0,0-.15.15,1,1,0,0,0-.09.15.35.35,0,0,0,0,.17.75.75,0,0,0,.41.61,1.64,1.64,0,0,0,.93.27,2.1,2.1,0,0,0,.64-.11,3,3,0,0,0,.52-.22l.49-.31Zm.2-.74.11-.06.19-.09.2-.1.17-.11a.8.8,0,0,0,.16-.13.45.45,0,0,0,.1-.13.35.35,0,0,0,0-.17.43.43,0,0,0-.23-.38,1.22,1.22,0,0,0-.61-.14,1.15,1.15,0,0,0-.57.14.42.42,0,0,0-.23.37.43.43,0,0,0,.07.23,1,1,0,0,0,.14.18l.22.18Z"/><path class="cls-1" d="M94.91,74.11h2.87v.19a2,2,0,0,1-1,1.66,4.25,4.25,0,0,1-2.46.66,4.46,4.46,0,0,1-2.58-.74,2,2,0,0,1,0-3.5,4.63,4.63,0,0,1,2.64-.74,5.26,5.26,0,0,1,1.64.25,3.73,3.73,0,0,1,1.3.68l-.63.4a2.81,2.81,0,0,0-1-.57,3.83,3.83,0,0,0-1.26-.21,3.62,3.62,0,0,0-2,.56,1.64,1.64,0,0,0-.84,1.37,1.68,1.68,0,0,0,.83,1.36,3.26,3.26,0,0,0,2,.59,3.16,3.16,0,0,0,1.6-.42,1.26,1.26,0,0,0,.77-1H94.91Z"/><path class="cls-1" d="M103,75.32H99.69l-.82,1.2h-1l3.45-5,3.44,5h-1Zm-.37-.54-1.28-1.93-1.29,1.93Z"/><polygon class="cls-1" points="108.78 76.62 106.62 73.36 106.6 73.36 105.76 76.52 104.83 76.52 106.31 71.54 108.78 75.3 111.26 71.54 112.74 76.52 111.81 76.52 110.97 73.36 110.95 73.36 108.78 76.62"/><polygon class="cls-1" points="113.54 76.52 113.54 71.75 117.42 71.75 117.42 72.29 114.44 72.29 114.44 73.62 117.33 73.62 117.33 74.17 114.44 74.17 114.44 75.97 117.42 75.97 117.42 76.52 113.54 76.52"/><path class="cls-1" d="M122.46,72.36l-.72.29a1.48,1.48,0,0,0-1.16-.45,1.75,1.75,0,0,0-.83.19c-.25.13-.38.29-.38.49s.34.51,1,.68l.52.13a4.12,4.12,0,0,1,1.32.55,1,1,0,0,1,.47.89A1.25,1.25,0,0,1,122,76.2a3,3,0,0,1-1.64.42,2.88,2.88,0,0,1-1.5-.38,1.43,1.43,0,0,1-.73-1l.91-.12a.72.72,0,0,0,.39.64,1.88,1.88,0,0,0,1,.26,1.62,1.62,0,0,0,1-.27.83.83,0,0,0,.38-.66.63.63,0,0,0-.33-.55,3.62,3.62,0,0,0-.92-.35l-.5-.14a4.37,4.37,0,0,1-1.15-.48.85.85,0,0,1-.42-.73,1,1,0,0,1,.63-.9,3.22,3.22,0,0,1,1.5-.34,2.31,2.31,0,0,1,1.86.72"/></g></g></g></svg>