<?xml version="1.0" encoding="utf-8"?>
<!-- Generator: Adobe Illustrator 27.1.1, SVG Export Plug-In . SVG Version: 6.00 Build 0)  -->
<svg version="1.1" id="Layer_1" xmlns="http://www.w3.org/2000/svg" xmlns:xlink="http://www.w3.org/1999/xlink" x="0px" y="0px"
	 viewBox="0 0 259.2 259.2" style="enable-background:new 0 0 259.2 259.2;" xml:space="preserve">
<style type="text/css">
	.st0{fill-rule:evenodd;clip-rule:evenodd;fill:#F0F0F0;}
	.st1{fill:#011627;}
</style>
<g id="Camada_x0020_1">
	<polygon class="st0" points="0,0 259.2,0 259.2,259.2 0,259.2 	"/>
	<path class="st1" d="M129.6,70.5c8.5,0,16.2,3.4,21.7,9c5.6,5.6,9,13.3,9,21.7s-3.4,16.2-9,21.7c-5.6,5.6-13.3,9-21.7,9
		c-8.5,0-16.2-3.4-21.7-9c-5.6-5.6-9-13.3-9-21.7s3.4-16.2,9-21.7C113.4,74,121.1,70.5,129.6,70.5z M153.7,139.3
		c-1.1-0.7-1.4-2.2-0.7-3.3c0.7-1.1,2.2-1.4,3.3-0.7c6.6,4.4,12,10.4,15.8,17.4c3.6,6.8,5.7,14.5,5.7,22.6v10.9
		c0,1.3-1.1,2.4-2.4,2.4H83.8c-1.3,0-2.4-1.1-2.4-2.4v-10.9c0-8.2,2.1-15.9,5.7-22.7c3.8-7,9.3-13,15.9-17.4
		c1.1-0.7,2.6-0.4,3.3,0.7c0.7,1.1,0.4,2.6-0.7,3.3c-6,4-10.9,9.4-14.4,15.7c-3.3,6.1-5.2,13.1-5.2,20.5v8.5H173v-8.5
		c0-7.4-1.9-14.3-5.1-20.4C164.5,148.7,159.6,143.3,153.7,139.3L153.7,139.3z M148,82.9c-4.7-4.7-11.2-7.6-18.4-7.6
		c-7.2,0-13.7,2.9-18.4,7.6c-4.7,4.7-7.6,11.2-7.6,18.4c0,7.2,2.9,13.7,7.6,18.4s11.2,7.6,18.4,7.6c7.2,0,13.7-2.9,18.4-7.6
		s7.6-11.2,7.6-18.4C155.6,94.1,152.7,87.6,148,82.9z"/>
</g>
</svg>
